<svg data-v-fde0c5aa="" xmlns="http://www.w3.org/2000/svg" viewBox="0 0 300 300" class="font"><!----><defs data-v-fde0c5aa=""><!----></defs><rect data-v-fde0c5aa="" fill="#EAF2EF" x="0" y="0" width="300px" height="300px" class="logo-background-square"></rect><defs data-v-fde0c5aa=""><linearGradient data-v-fde0c5aa="" gradientTransform="rotate(25)" id="caaf1c7b-c981-4640-be57-3fb4a0608951" x1="0%" y1="0%" x2="100%" y2="0%"><stop data-v-fde0c5aa="" offset="0%" stop-color="#0A3732" stop-opacity="1"></stop><stop data-v-fde0c5aa="" offset="100%" stop-color="#55C388" stop-opacity="1"></stop></linearGradient></defs><g data-v-fde0c5aa="" id="1c11d1d9-9209-4478-8b2e-6953f36359ac" fill="url(#caaf1c7b-c981-4640-be57-3fb4a0608951)" transform="matrix(1.77325383861222,0,0,1.77325383861222,37.917693251672766,131.2833060378472)"><path d="M1.68 14.01Q1.53 14.01 1.53 13.85L1.53 13.85Q1.53 13.76 1.60 13.69Q1.67 13.62 1.76 13.62L1.76 13.62L2.34 13.62Q2.48 13.62 2.60 13.51Q2.73 13.40 2.76 13.24L2.76 13.24L4.73 4.82Q4.06 4.82 3.60 4.91Q3.15 5.00 2.71 5.33Q2.27 5.66 1.83 6.33L1.83 6.33L1.48 6.82Q1.46 6.86 1.41 6.92Q1.37 6.97 1.32 6.97L1.32 6.97Q1.26 6.97 1.21 6.93Q1.16 6.89 1.18 6.82L1.18 6.82L1.81 4.66Q1.88 4.41 2.09 4.41L2.09 4.41L8.76 4.41Q8.88 4.41 8.94 4.49Q9.00 4.56 8.99 4.66L8.99 4.66L8.57 6.82Q8.53 6.97 8.43 6.97L8.43 6.97Q8.39 6.97 8.36 6.94Q8.33 6.90 8.32 6.87Q8.32 6.83 8.30 6.82L8.30 6.82L8.18 6.33Q8.06 5.67 7.77 5.34Q7.48 5.01 7.06 4.91Q6.65 4.82 6.03 4.82L6.03 4.82L4.07 13.24L4.07 13.33Q4.07 13.45 4.14 13.54Q4.20 13.62 4.33 13.62L4.33 13.62L4.89 13.62Q4.96 13.62 5.00 13.67Q5.05 13.72 5.05 13.78L5.05 13.78Q5.05 13.87 4.98 13.94Q4.90 14.01 4.82 14.01L4.82 14.01L1.68 14.01ZM9.09 14.01Q8.99 14.01 8.93 13.95Q8.88 13.89 8.90 13.78L8.90 13.78L9.24 12.39Q9.59 10.93 9.74 10.21Q9.90 9.49 9.90 9.10L9.90 9.10Q9.90 8.65 9.67 8.65L9.67 8.65Q9.38 8.65 9.02 9.14Q8.67 9.62 8.39 10.35L8.39 10.35L8.22 10.30Q8.64 9.32 9.06 8.78Q9.48 8.23 10.07 8.23L10.07 8.23Q10.85 8.23 10.85 9.04L10.85 9.04Q10.85 9.30 10.75 9.72L10.75 9.72Q10.77 9.69 10.98 9.30Q11.19 8.92 11.63 8.58Q12.08 8.23 12.59 8.23L12.59 8.23Q12.95 8.25 13.13 8.41Q13.31 8.58 13.31 8.86L13.31 8.86Q13.31 8.93 13.29 9.10L13.29 9.10Q13.23 9.41 13.03 9.62Q12.82 9.83 12.56 9.83L12.56 9.83Q12.39 9.83 12.29 9.72Q12.18 9.62 12.18 9.41L12.18 9.41Q12.18 9.25 12.23 9.16Q12.28 9.07 12.38 8.97L12.38 8.97Q12.50 8.82 12.50 8.72L12.50 8.72Q12.50 8.55 12.29 8.55L12.29 8.55Q12.01 8.55 11.66 8.81Q11.31 9.07 10.99 9.60Q10.67 10.14 10.49 10.91L10.49 10.91L9.83 13.83Q9.79 14.01 9.60 14.01L9.60 14.01L9.09 14.01ZM15.83 6.41Q15.65 6.41 15.53 6.27Q15.40 6.13 15.40 5.92L15.40 5.92Q15.40 5.63 15.63 5.36Q15.86 5.08 16.14 5.08L16.14 5.08Q16.35 5.08 16.49 5.24Q16.63 5.39 16.63 5.60L16.63 5.60Q16.63 5.88 16.38 6.15Q16.13 6.41 15.83 6.41L15.83 6.41ZM14.60 14.15Q14.25 14.15 13.99 13.94Q13.73 13.72 13.73 13.29L13.73 13.29Q13.73 12.92 13.90 12.39Q14.07 11.86 14.41 10.95L14.41 10.95Q14.45 10.82 14.62 10.34Q14.80 9.86 14.88 9.54Q14.97 9.23 14.97 9.04L14.97 9.04Q14.97 8.88 14.90 8.76Q14.83 8.65 14.69 8.65L14.69 8.65Q14.38 8.65 14.03 9.11Q13.68 9.58 13.37 10.35L13.37 10.35L13.20 10.30Q13.62 9.35 14.06 8.79Q14.49 8.23 15.09 8.23L15.09 8.23Q15.46 8.23 15.68 8.44Q15.90 8.64 15.90 9.04L15.90 9.04Q15.90 9.39 15.74 9.92Q15.58 10.44 15.29 11.23L15.29 11.23Q14.98 12.07 14.84 12.51Q14.70 12.95 14.70 13.26L14.70 13.26Q14.70 13.71 15.01 13.71L15.01 13.71Q15.33 13.71 15.67 13.24Q16.00 12.77 16.31 12.03L16.31 12.03L16.46 12.07Q16.06 13.05 15.64 13.60Q15.22 14.15 14.60 14.15L14.60 14.15ZM21.80 14.15Q21.43 14.15 21.19 13.94Q20.94 13.72 20.94 13.19L20.94 13.19Q20.94 12.78 21.06 12.31Q21.18 11.84 21.43 11.09L21.43 11.09Q21.63 10.49 21.74 10.10Q21.84 9.72 21.84 9.44L21.84 9.44Q21.84 8.83 21.27 8.83L21.27 8.83Q20.71 8.83 20.32 9.35Q19.94 9.87 19.68 10.67Q19.42 11.47 19.04 12.98L19.04 12.98L18.83 13.83Q18.79 14.01 18.61 14.01L18.61 14.01L18.05 14.01Q17.93 14.01 17.89 13.94Q17.84 13.87 17.86 13.78L17.86 13.78Q17.96 13.36 18.42 11.51L18.42 11.51Q18.68 10.54 18.80 9.98Q18.93 9.41 18.93 9.09L18.93 9.09Q18.93 8.64 18.65 8.64L18.65 8.64Q18.35 8.64 17.99 9.11Q17.63 9.58 17.33 10.32L17.33 10.32L17.16 10.28Q17.57 9.34 18.00 8.79Q18.42 8.23 19.05 8.23L19.05 8.23Q19.52 8.23 19.68 8.45Q19.84 8.67 19.84 9.00L19.84 9.00L19.82 9.34Q19.82 9.46 19.87 9.46L19.87 9.46Q19.89 9.46 19.95 9.41L19.95 9.41Q20.01 9.34 20.25 9.02Q20.50 8.71 20.92 8.47Q21.35 8.23 21.90 8.23L21.90 8.23Q22.88 8.23 22.88 9.10L22.88 9.10Q22.88 9.44 22.76 9.86Q22.65 10.29 22.44 10.95L22.44 10.95Q22.20 11.68 22.07 12.19Q21.94 12.71 21.94 13.16L21.94 13.16Q21.94 13.45 22.01 13.58Q22.08 13.71 22.23 13.71L22.23 13.71Q22.82 13.71 23.52 12.03L23.52 12.03L23.67 12.07Q23.24 13.09 22.83 13.62Q22.41 14.15 21.80 14.15L21.80 14.15ZM27.03 6.41Q26.85 6.41 26.73 6.27Q26.60 6.13 26.60 5.92L26.60 5.92Q26.60 5.63 26.83 5.36Q27.06 5.08 27.34 5.08L27.34 5.08Q27.55 5.08 27.69 5.24Q27.83 5.39 27.83 5.60L27.83 5.60Q27.83 5.88 27.58 6.15Q27.33 6.41 27.03 6.41L27.03 6.41ZM25.80 14.15Q25.45 14.15 25.19 13.94Q24.93 13.72 24.93 13.29L24.93 13.29Q24.93 12.92 25.10 12.39Q25.27 11.86 25.61 10.95L25.61 10.95Q25.65 10.82 25.82 10.34Q26.00 9.86 26.08 9.54Q26.17 9.23 26.17 9.04L26.17 9.04Q26.17 8.88 26.10 8.76Q26.03 8.65 25.89 8.65L25.89 8.65Q25.58 8.65 25.23 9.11Q24.88 9.58 24.57 10.35L24.57 10.35L24.40 10.30Q24.82 9.35 25.26 8.79Q25.69 8.23 26.29 8.23L26.29 8.23Q26.66 8.23 26.88 8.44Q27.10 8.64 27.10 9.04L27.10 9.04Q27.10 9.39 26.94 9.92Q26.78 10.44 26.49 11.23L26.49 11.23Q26.18 12.07 26.04 12.51Q25.90 12.95 25.90 13.26L25.90 13.26Q25.90 13.71 26.21 13.71L26.21 13.71Q26.53 13.71 26.87 13.24Q27.20 12.77 27.51 12.03L27.51 12.03L27.66 12.07Q27.26 13.05 26.84 13.60Q26.42 14.15 25.80 14.15L25.80 14.15ZM29.67 14.15Q29.27 14.15 29.06 13.93Q28.84 13.71 28.84 13.44L28.84 13.44Q28.84 13.12 29.17 11.65Q29.50 10.18 29.85 8.81L29.85 8.81L28.76 8.81Q28.66 8.81 28.69 8.65L28.69 8.65Q28.70 8.58 28.74 8.57Q28.77 8.55 28.82 8.55Q28.87 8.55 28.90 8.55L28.90 8.55Q29.76 8.55 30.24 7.82Q30.72 7.08 30.90 6.38L30.90 6.38Q30.95 6.20 31.11 6.20L31.11 6.20L31.21 6.20Q31.26 6.20 31.30 6.26Q31.33 6.31 31.30 6.38L31.30 6.38L30.83 8.43L31.85 8.43Q31.92 8.43 31.92 8.54L31.92 8.54Q31.92 8.62 31.88 8.71Q31.84 8.81 31.78 8.81L31.78 8.81L30.74 8.81Q30.46 9.88 30.11 11.49Q29.75 13.10 29.75 13.37L29.75 13.37Q29.75 13.51 29.85 13.61Q29.95 13.71 30.09 13.71L30.09 13.71Q30.38 13.71 30.72 13.25Q31.05 12.80 31.37 12.03L31.37 12.03L31.53 12.07Q31.12 13.03 30.70 13.59Q30.28 14.15 29.67 14.15L29.67 14.15ZM33.70 16.53Q33.04 16.53 32.60 16.27Q32.16 16.00 32.16 15.54L32.16 15.54Q32.16 15.27 32.31 15.09Q32.45 14.91 32.80 14.91L32.80 14.91Q33.05 14.91 33.20 15.04Q33.35 15.16 33.35 15.41L33.35 15.41Q33.35 15.55 33.29 15.72Q33.22 15.88 33.22 15.92L33.22 15.92Q33.22 16.28 33.94 16.28L33.94 16.28Q34.52 16.28 34.91 15.94Q35.29 15.60 35.56 14.92Q35.83 14.24 36.18 12.96L36.18 12.96L36.11 12.96Q35.85 13.33 35.38 13.73Q34.90 14.14 34.24 14.14L34.24 14.14Q33.70 14.14 33.45 13.80Q33.21 13.47 33.21 13.08L33.21 13.08Q33.21 12.84 33.31 12.33Q33.42 11.82 33.52 11.44Q33.61 11.06 33.66 10.86L33.66 10.86Q34.06 9.32 34.06 8.96L34.06 8.96Q34.06 8.65 33.84 8.65L33.84 8.65Q33.52 8.65 33.15 9.14Q32.79 9.63 32.52 10.35L32.52 10.35L32.35 10.30Q32.77 9.32 33.19 8.78Q33.61 8.23 34.19 8.23L34.19 8.23Q34.52 8.23 34.76 8.41Q34.99 8.58 34.99 8.96L34.99 8.96Q34.99 9.38 34.58 10.84L34.58 10.84Q34.37 11.61 34.27 12.08Q34.16 12.56 34.16 12.85L34.16 12.85Q34.16 13.52 34.79 13.52L34.79 13.52Q35.39 13.52 35.81 12.92Q36.22 12.32 36.48 11.40Q36.75 10.49 37.13 8.83L37.13 8.83Q37.17 8.71 37.23 8.43L37.23 8.43L38.14 8.43L37.13 12.96Q36.67 14.98 35.80 15.76Q34.93 16.53 33.70 16.53L33.70 16.53ZM41.68 16.80Q41.57 16.80 41.52 16.74Q41.48 16.67 41.52 16.56L41.52 16.56Q42.03 15.46 42.52 13.57Q43.02 11.69 43.67 8.86L43.67 8.86L42.53 8.86Q42.49 8.86 42.47 8.81Q42.45 8.76 42.45 8.72L42.45 8.72Q42.45 8.58 42.48 8.51Q42.52 8.43 42.66 8.43L42.66 8.43L43.76 8.43L43.95 7.56Q44.34 5.70 45.08 5.01Q45.82 4.31 46.56 4.31L46.56 4.31Q46.98 4.31 47.18 4.49Q47.38 4.68 47.38 4.97L47.38 4.97Q47.38 5.28 47.18 5.45Q46.98 5.63 46.73 5.63L46.73 5.63Q46.56 5.63 46.45 5.53Q46.34 5.43 46.34 5.25L46.34 5.25Q46.34 5.17 46.37 5.03Q46.40 4.89 46.40 4.79L46.40 4.79Q46.40 4.62 46.23 4.62L46.23 4.62Q45.81 4.62 45.47 5.41Q45.12 6.20 44.93 7.14L44.93 7.14L44.66 8.43L45.98 8.43Q46.16 8.43 46.16 8.57L46.16 8.57Q46.16 8.72 46.07 8.79Q45.98 8.86 45.88 8.86L45.88 8.86L44.56 8.86Q43.96 11.49 43.44 13.50Q42.92 15.51 42.48 16.65L42.48 16.65Q42.41 16.80 42.22 16.80L42.22 16.80L41.68 16.80ZM47.68 14.14Q46.83 14.14 46.31 13.53Q45.78 12.92 45.78 11.97L45.78 11.97Q45.78 11.06 46.25 10.19Q46.72 9.32 47.47 8.78Q48.23 8.23 49.03 8.23L49.03 8.23Q49.87 8.23 50.37 8.85Q50.86 9.46 50.86 10.42L50.86 10.42Q50.86 11.34 50.41 12.20Q49.95 13.06 49.22 13.60Q48.48 14.14 47.68 14.14L47.68 14.14ZM47.73 13.89Q48.34 13.89 48.83 13.24Q49.31 12.59 49.57 11.64Q49.84 10.70 49.84 9.91L49.84 9.91Q49.84 9.24 49.62 8.87Q49.39 8.50 48.96 8.50L48.96 8.50Q48.36 8.50 47.87 9.16Q47.38 9.83 47.10 10.77Q46.83 11.72 46.83 12.49L46.83 12.49Q46.83 13.16 47.06 13.52Q47.29 13.89 47.73 13.89L47.73 13.89ZM56.04 14.15Q55.64 14.15 55.43 13.93Q55.23 13.71 55.23 13.37L55.23 13.37Q55.23 13.26 55.25 13.13Q55.27 13.01 55.27 12.96L55.27 12.96L55.20 12.96Q54.95 13.33 54.47 13.73Q54.00 14.14 53.34 14.14L53.34 14.14Q52.79 14.14 52.55 13.80Q52.30 13.47 52.30 13.08L52.30 13.08Q52.30 12.66 52.47 12.09Q52.63 11.52 52.91 10.72L52.91 10.72Q53.14 10.04 53.26 9.64Q53.37 9.24 53.37 8.99L53.37 8.99Q53.37 8.65 53.12 8.65L53.12 8.65Q52.74 8.65 52.40 9.23Q52.05 9.80 51.80 10.42L51.80 10.42L51.59 10.42Q52.05 9.25 52.50 8.74Q52.95 8.23 53.61 8.23L53.61 8.23Q53.98 8.23 54.14 8.40Q54.29 8.57 54.29 8.90L54.29 8.90Q54.29 9.23 54.16 9.70Q54.03 10.16 53.77 10.86L53.77 10.86Q53.49 11.72 53.38 12.12Q53.26 12.53 53.26 12.85L53.26 12.85Q53.26 13.17 53.41 13.35Q53.56 13.52 53.83 13.52L53.83 13.52Q54.45 13.52 54.85 12.97Q55.26 12.42 55.52 11.52Q55.79 10.63 56.17 8.93L56.17 8.93L56.24 8.62Q56.28 8.43 56.46 8.43L56.46 8.43L56.95 8.43Q57.06 8.43 57.11 8.49Q57.16 8.55 57.13 8.65L57.13 8.65L56.99 9.20Q56.11 12.68 56.11 13.30L56.11 13.30Q56.11 13.54 56.20 13.62Q56.29 13.71 56.46 13.71L56.46 13.71Q56.76 13.71 57.09 13.26Q57.41 12.81 57.74 12.03L57.74 12.03L57.90 12.07Q57.47 13.06 57.06 13.61Q56.66 14.15 56.04 14.15L56.04 14.15ZM63.14 14.15Q62.78 14.15 62.53 13.94Q62.29 13.72 62.29 13.19L62.29 13.19Q62.29 12.78 62.41 12.31Q62.52 11.84 62.78 11.09L62.78 11.09Q62.97 10.49 63.08 10.10Q63.18 9.72 63.18 9.44L63.18 9.44Q63.18 8.83 62.61 8.83L62.61 8.83Q62.05 8.83 61.66 9.35Q61.28 9.87 61.02 10.67Q60.76 11.47 60.38 12.98L60.38 12.98L60.17 13.83Q60.13 14.01 59.95 14.01L59.95 14.01L59.39 14.01Q59.28 14.01 59.23 13.94Q59.18 13.87 59.21 13.78L59.21 13.78Q59.30 13.36 59.77 11.51L59.77 11.51Q60.02 10.54 60.14 9.98Q60.27 9.41 60.27 9.09L60.27 9.09Q60.27 8.64 59.99 8.64L59.99 8.64Q59.70 8.64 59.33 9.11Q58.97 9.58 58.67 10.32L58.67 10.32L58.51 10.28Q58.91 9.34 59.34 8.79Q59.77 8.23 60.40 8.23L60.40 8.23Q60.86 8.23 61.02 8.45Q61.18 8.67 61.18 9.00L61.18 9.00L61.17 9.34Q61.17 9.46 61.21 9.46L61.21 9.46Q61.24 9.46 61.29 9.41L61.29 9.41Q61.35 9.34 61.59 9.02Q61.84 8.71 62.27 8.47Q62.69 8.23 63.24 8.23L63.24 8.23Q64.22 8.23 64.22 9.10L64.22 9.10Q64.22 9.44 64.11 9.86Q63.99 10.29 63.78 10.95L63.78 10.95Q63.55 11.68 63.41 12.19Q63.28 12.71 63.28 13.16L63.28 13.16Q63.28 13.45 63.35 13.58Q63.42 13.71 63.57 13.71L63.57 13.71Q64.16 13.71 64.86 12.03L64.86 12.03L65.02 12.07Q64.58 13.09 64.17 13.62Q63.76 14.15 63.14 14.15L63.14 14.15ZM67.42 14.20Q67.05 14.20 66.65 14.01Q66.26 13.82 65.99 13.40Q65.72 12.98 65.72 12.31L65.72 12.31Q65.72 11.45 66.14 10.49Q66.57 9.53 67.26 8.88Q67.96 8.23 68.70 8.23L68.70 8.23Q69.09 8.23 69.42 8.46Q69.75 8.69 69.94 8.99L69.94 8.99L70 9.02Q70.13 9.02 70.14 8.90L70.14 8.90L70.43 7.77L70.57 7.13Q70.94 5.49 71.02 5.19L71.02 5.19Q71.04 5.15 71.04 5.07L71.04 5.07Q71.04 4.82 70.84 4.76Q70.64 4.70 70.25 4.70L70.25 4.70Q70.06 4.70 70.06 4.56L70.06 4.56Q70.06 4.48 70.10 4.45Q70.14 4.41 70.25 4.41L70.25 4.41L71.79 4.41Q72.03 4.41 72.03 4.63L72.03 4.63Q72.03 4.70 72.02 4.75L72.02 4.75L71.39 7.41L71.05 8.82Q70.04 12.82 70.04 13.34L70.04 13.34Q70.04 13.51 70.13 13.61Q70.22 13.71 70.36 13.71L70.36 13.71Q70.66 13.71 70.99 13.25Q71.33 12.80 71.65 12.03L71.65 12.03L71.81 12.07Q71.36 13.13 70.94 13.64Q70.53 14.15 69.87 14.15L69.87 14.15Q69.47 14.15 69.33 13.96Q69.19 13.76 69.10 13.37L69.10 13.37Q69.09 13.22 68.99 13.33L68.99 13.33Q68.57 13.75 68.21 13.97Q67.86 14.20 67.42 14.20L67.42 14.20ZM67.52 13.83Q68.19 13.83 68.61 13.38Q69.03 12.94 69.31 12.13Q69.59 11.33 69.90 9.90L69.90 9.90Q69.90 9.41 69.67 8.97Q69.44 8.54 68.95 8.54L68.95 8.54Q68.29 8.54 67.77 9.22Q67.24 9.90 66.95 10.89Q66.65 11.87 66.65 12.70L66.65 12.70Q66.65 13.26 66.84 13.55Q67.03 13.83 67.52 13.83L67.52 13.83ZM74.13 14.20Q73.75 14.20 73.36 14.01Q72.97 13.82 72.69 13.40Q72.42 12.98 72.42 12.31L72.42 12.31Q72.42 11.45 72.85 10.49Q73.28 9.53 73.97 8.88Q74.66 8.23 75.40 8.23L75.40 8.23Q75.80 8.23 76.12 8.45Q76.44 8.67 76.62 8.95L76.62 8.95Q76.66 9.00 76.72 9.00L76.72 9.00Q76.82 9.00 76.85 8.90L76.85 8.90L76.93 8.61Q76.97 8.43 77.15 8.43L77.15 8.43L77.60 8.43Q77.83 8.43 77.78 8.67L77.78 8.67Q76.75 12.84 76.75 13.34L76.75 13.34Q76.75 13.51 76.84 13.61Q76.93 13.71 77.07 13.71L77.07 13.71Q77.36 13.71 77.70 13.25Q78.04 12.80 78.36 12.03L78.36 12.03L78.51 12.07Q78.06 13.13 77.65 13.64Q77.24 14.15 76.58 14.15L76.58 14.15Q76.17 14.15 76.03 13.96Q75.89 13.76 75.81 13.37L75.81 13.37Q75.80 13.22 75.70 13.33L75.70 13.33Q75.28 13.75 74.92 13.97Q74.56 14.20 74.13 14.20L74.13 14.20ZM74.23 13.83Q74.90 13.83 75.32 13.38Q75.74 12.94 76.02 12.13Q76.30 11.33 76.61 9.90L76.61 9.90Q76.61 9.41 76.38 8.97Q76.15 8.54 75.66 8.54L75.66 8.54Q75.00 8.54 74.47 9.22Q73.95 9.90 73.65 10.89Q73.36 11.87 73.36 12.70L73.36 12.70Q73.36 13.26 73.55 13.55Q73.74 13.83 74.23 13.83L74.23 13.83ZM80.51 14.15Q80.12 14.15 79.91 13.93Q79.69 13.71 79.69 13.44L79.69 13.44Q79.69 13.12 80.02 11.65Q80.35 10.18 80.70 8.81L80.70 8.81L79.60 8.81Q79.51 8.81 79.53 8.65L79.53 8.65Q79.55 8.58 79.58 8.57Q79.62 8.55 79.67 8.55Q79.72 8.55 79.74 8.55L79.74 8.55Q80.61 8.55 81.09 7.82Q81.56 7.08 81.75 6.38L81.75 6.38Q81.80 6.20 81.96 6.20L81.96 6.20L82.05 6.20Q82.11 6.20 82.14 6.26Q82.18 6.31 82.15 6.38L82.15 6.38L81.68 8.43L82.70 8.43Q82.77 8.43 82.77 8.54L82.77 8.54Q82.77 8.62 82.73 8.71Q82.68 8.81 82.63 8.81L82.63 8.81L81.59 8.81Q81.31 9.88 80.95 11.49Q80.60 13.10 80.60 13.37L80.60 13.37Q80.60 13.51 80.70 13.61Q80.79 13.71 80.93 13.71L80.93 13.71Q81.23 13.71 81.56 13.25Q81.90 12.80 82.22 12.03L82.22 12.03L82.38 12.07Q81.97 13.03 81.55 13.59Q81.13 14.15 80.51 14.15L80.51 14.15ZM85.93 6.41Q85.75 6.41 85.62 6.27Q85.50 6.13 85.50 5.92L85.50 5.92Q85.50 5.63 85.73 5.36Q85.96 5.08 86.24 5.08L86.24 5.08Q86.45 5.08 86.59 5.24Q86.73 5.39 86.73 5.60L86.73 5.60Q86.73 5.88 86.48 6.15Q86.23 6.41 85.93 6.41L85.93 6.41ZM84.70 14.15Q84.35 14.15 84.09 13.94Q83.83 13.72 83.83 13.29L83.83 13.29Q83.83 12.92 84.00 12.39Q84.17 11.86 84.50 10.95L84.50 10.95Q84.55 10.82 84.72 10.34Q84.90 9.86 84.98 9.54Q85.06 9.23 85.06 9.04L85.06 9.04Q85.06 8.88 84.99 8.76Q84.92 8.65 84.78 8.65L84.78 8.65Q84.48 8.65 84.13 9.11Q83.78 9.58 83.47 10.35L83.47 10.35L83.30 10.30Q83.72 9.35 84.15 8.79Q84.59 8.23 85.19 8.23L85.19 8.23Q85.55 8.23 85.78 8.44Q86.00 8.64 86.00 9.04L86.00 9.04Q86.00 9.39 85.84 9.92Q85.68 10.44 85.39 11.23L85.39 11.23Q85.08 12.07 84.94 12.51Q84.80 12.95 84.80 13.26L84.80 13.26Q84.80 13.71 85.11 13.71L85.11 13.71Q85.43 13.71 85.76 13.24Q86.10 12.77 86.41 12.03L86.41 12.03L86.56 12.07Q86.16 13.05 85.74 13.60Q85.32 14.15 84.70 14.15L84.70 14.15ZM89.22 14.14Q88.37 14.14 87.84 13.53Q87.32 12.92 87.32 11.97L87.32 11.97Q87.32 11.06 87.79 10.19Q88.26 9.32 89.01 8.78Q89.77 8.23 90.57 8.23L90.57 8.23Q91.41 8.23 91.90 8.85Q92.40 9.46 92.40 10.42L92.40 10.42Q92.40 11.34 91.94 12.20Q91.49 13.06 90.75 13.60Q90.02 14.14 89.22 14.14L89.22 14.14ZM89.26 13.89Q89.88 13.89 90.36 13.24Q90.85 12.59 91.11 11.64Q91.38 10.70 91.38 9.91L91.38 9.91Q91.38 9.24 91.15 8.87Q90.93 8.50 90.50 8.50L90.50 8.50Q89.89 8.50 89.40 9.16Q88.91 9.83 88.64 10.77Q88.37 11.72 88.37 12.49L88.37 12.49Q88.37 13.16 88.60 13.52Q88.83 13.89 89.26 13.89L89.26 13.89ZM97.72 14.15Q97.36 14.15 97.11 13.94Q96.87 13.72 96.87 13.19L96.87 13.19Q96.87 12.78 96.98 12.31Q97.10 11.84 97.36 11.09L97.36 11.09Q97.55 10.49 97.66 10.10Q97.76 9.72 97.76 9.44L97.76 9.44Q97.76 8.83 97.19 8.83L97.19 8.83Q96.63 8.83 96.24 9.35Q95.86 9.87 95.60 10.67Q95.34 11.47 94.96 12.98L94.96 12.98L94.75 13.83Q94.71 14.01 94.53 14.01L94.53 14.01L93.97 14.01Q93.86 14.01 93.81 13.94Q93.76 13.87 93.79 13.78L93.79 13.78Q93.88 13.36 94.35 11.51L94.35 11.51Q94.60 10.54 94.72 9.98Q94.85 9.41 94.85 9.09L94.85 9.09Q94.85 8.64 94.57 8.64L94.57 8.64Q94.28 8.64 93.91 9.11Q93.55 9.58 93.25 10.32L93.25 10.32L93.09 10.28Q93.49 9.34 93.92 8.79Q94.35 8.23 94.98 8.23L94.98 8.23Q95.44 8.23 95.60 8.45Q95.76 8.67 95.76 9.00L95.76 9.00L95.75 9.34Q95.75 9.46 95.79 9.46L95.79 9.46Q95.82 9.46 95.87 9.41L95.87 9.41Q95.93 9.34 96.17 9.02Q96.42 8.71 96.84 8.47Q97.27 8.23 97.82 8.23L97.82 8.23Q98.80 8.23 98.80 9.10L98.80 9.10Q98.80 9.44 98.69 9.86Q98.57 10.29 98.36 10.95L98.36 10.95Q98.13 11.68 97.99 12.19Q97.86 12.71 97.86 13.16L97.86 13.16Q97.86 13.45 97.93 13.58Q98.00 13.71 98.15 13.71L98.15 13.71Q98.74 13.71 99.44 12.03L99.44 12.03L99.60 12.07Q99.16 13.09 98.75 13.62Q98.34 14.15 97.72 14.15L97.72 14.15ZM105.39 14.14Q104.57 14.14 104.03 13.61Q103.50 13.08 103.50 12.12L103.50 12.12Q103.50 11.21 103.98 10.33Q104.45 9.44 105.24 8.88Q106.02 8.32 106.88 8.32L106.88 8.32Q107.44 8.32 107.80 8.57Q108.16 8.82 108.16 9.32L108.16 9.32Q108.16 9.74 107.92 9.96Q107.67 10.18 107.39 10.18L107.39 10.18Q107.18 10.18 107.06 10.05Q106.95 9.91 106.95 9.73L106.95 9.73Q106.95 9.45 107.18 9.23Q107.41 9.00 107.63 9.00L107.63 9.00Q107.59 8.50 106.92 8.50L106.92 8.50Q106.16 8.50 105.60 9.15Q105.04 9.80 104.75 10.73Q104.47 11.66 104.47 12.46L104.47 12.46Q104.47 13.13 104.72 13.48Q104.97 13.83 105.57 13.83L105.57 13.83Q106.19 13.83 106.66 13.48Q107.13 13.12 107.38 12.47L107.38 12.47L107.58 12.52Q107.35 13.16 106.79 13.65Q106.23 14.14 105.39 14.14L105.39 14.14ZM110.36 14.20Q109.98 14.20 109.59 14.01Q109.20 13.82 108.93 13.40Q108.65 12.98 108.65 12.31L108.65 12.31Q108.65 11.45 109.08 10.49Q109.51 9.53 110.20 8.88Q110.89 8.23 111.64 8.23L111.64 8.23Q112.03 8.23 112.35 8.45Q112.67 8.67 112.85 8.95L112.85 8.95Q112.90 9.00 112.95 9.00L112.95 9.00Q113.05 9.00 113.08 8.90L113.08 8.90L113.16 8.61Q113.20 8.43 113.39 8.43L113.39 8.43L113.83 8.43Q114.06 8.43 114.02 8.67L114.02 8.67Q112.98 12.84 112.98 13.34L112.98 13.34Q112.98 13.51 113.07 13.61Q113.16 13.71 113.30 13.71L113.30 13.71Q113.60 13.71 113.93 13.25Q114.27 12.80 114.59 12.03L114.59 12.03L114.74 12.07Q114.30 13.13 113.88 13.64Q113.47 14.15 112.81 14.15L112.81 14.15Q112.41 14.15 112.27 13.96Q112.13 13.76 112.04 13.37L112.04 13.37Q112.03 13.22 111.93 13.33L111.93 13.33Q111.51 13.75 111.15 13.97Q110.80 14.20 110.36 14.20L110.36 14.20ZM110.46 13.83Q111.13 13.83 111.55 13.38Q111.97 12.94 112.25 12.13Q112.53 11.33 112.84 9.90L112.84 9.90Q112.84 9.41 112.61 8.97Q112.38 8.54 111.89 8.54L111.89 8.54Q111.23 8.54 110.70 9.22Q110.18 9.90 109.89 10.89Q109.59 11.87 109.59 12.70L109.59 12.70Q109.59 13.26 109.78 13.55Q109.97 13.83 110.46 13.83L110.46 13.83ZM116.33 14.01Q116.23 14.01 116.17 13.95Q116.12 13.89 116.14 13.78L116.14 13.78L116.48 12.39Q116.83 10.93 116.98 10.21Q117.14 9.49 117.14 9.10L117.14 9.10Q117.14 8.65 116.91 8.65L116.91 8.65Q116.62 8.65 116.26 9.14Q115.91 9.62 115.63 10.35L115.63 10.35L115.46 10.30Q115.88 9.32 116.30 8.78Q116.72 8.23 117.31 8.23L117.31 8.23Q118.09 8.23 118.09 9.04L118.09 9.04Q118.09 9.30 117.99 9.72L117.99 9.72Q118.01 9.69 118.22 9.30Q118.43 8.92 118.87 8.58Q119.32 8.23 119.83 8.23L119.83 8.23Q120.19 8.25 120.37 8.41Q120.55 8.58 120.55 8.86L120.55 8.86Q120.55 8.93 120.53 9.10L120.53 9.10Q120.47 9.41 120.27 9.62Q120.06 9.83 119.80 9.83L119.80 9.83Q119.63 9.83 119.52 9.72Q119.42 9.62 119.42 9.41L119.42 9.41Q119.42 9.25 119.47 9.16Q119.52 9.07 119.62 8.97L119.62 8.97Q119.74 8.82 119.74 8.72L119.74 8.72Q119.74 8.55 119.53 8.55L119.53 8.55Q119.25 8.55 118.90 8.81Q118.55 9.07 118.23 9.60Q117.91 10.14 117.73 10.91L117.73 10.91L117.07 13.83Q117.03 14.01 116.84 14.01L116.84 14.01L116.33 14.01ZM122.36 14.14Q121.55 14.14 120.97 13.61Q120.40 13.08 120.40 12.08L120.40 12.08Q120.40 11.80 120.50 11.27L120.50 11.27Q120.71 10.36 121.23 9.67Q121.74 8.97 122.39 8.60Q123.03 8.23 123.61 8.23L123.61 8.23Q124.47 8.23 124.86 8.80Q125.24 9.37 125.24 10.12L125.24 10.12Q125.24 10.47 125.19 10.68L125.19 10.68Q125.12 11.02 124.87 11.02L124.87 11.02L122.22 11.02Q121.87 11.02 121.71 11.07Q121.55 11.12 121.51 11.31L121.51 11.31Q121.49 11.41 121.42 11.77Q121.35 12.14 121.35 12.45L121.35 12.45Q121.35 13.83 122.63 13.83L122.63 13.83L122.67 13.83Q123.09 13.82 123.53 13.57Q123.97 13.33 124.53 12.67L124.53 12.67Q124.59 12.61 124.68 12.61L124.68 12.61Q124.75 12.61 124.78 12.66Q124.80 12.70 124.74 12.78L124.74 12.78Q124.63 12.95 124.31 13.27Q124.00 13.58 123.48 13.86Q122.96 14.14 122.36 14.14L122.36 14.14ZM121.70 10.67L123.93 10.67Q124.12 10.67 124.17 10.63Q124.21 10.60 124.25 10.42L124.25 10.42Q124.35 10.02 124.35 9.53L124.35 9.53Q124.35 8.47 123.62 8.47L123.62 8.47Q123.09 8.47 122.56 9.02Q122.04 9.58 121.70 10.67L121.70 10.67Z"></path></g><!----><!----></svg>